<?xml version="1.0" standalone="no"?>
<!DOCTYPE svg PUBLIC "-//W3C//DTD SVG 20010904//EN"
 "http://www.w3.org/TR/2001/REC-SVG-20010904/DTD/svg10.dtd">
<svg version="1.0" xmlns="http://www.w3.org/2000/svg"
 width="2048.000000pt" height="2048.000000pt" viewBox="0 0 2048.000000 2048.000000"
 preserveAspectRatio="xMidYMid meet">

<g transform="translate(0.000000,2048.000000) scale(0.100000,-0.100000)"
fill="#000000" stroke="none">
<path d="M0 10240 l0 -10240 10240 0 10240 0 0 10240 0 10240 -10240 0 -10240
0 0 -10240z m6676 1998 c26 -51 93 -190 149 -308 167 -350 414 -866 548 -1145
151 -316 348 -726 465 -972 48 -100 90 -179 94 -175 8 8 317 651 578 1202 98
206 215 452 260 545 45 94 135 283 200 420 64 138 148 312 185 388 l68 137
519 0 518 0 -2 -2192 -3 -2193 -443 -3 -442 -2 2 1469 c2 809 0 1467 -3 1463
-7 -7 -60 -117 -628 -1292 -166 -344 -343 -708 -394 -810 l-92 -185 -344 0
-344 0 -269 570 c-256 545 -324 687 -667 1405 l-151 315 0 -1467 0 -1468 -440
0 -440 0 0 2195 0 2195 515 0 515 0 46 -92z m5606 -897 l3 -990 245 277 c770
868 913 1030 1114 1257 122 138 260 294 306 347 l85 98 519 0 518 0 -104 -112
c-130 -141 -573 -633 -903 -1003 -137 -154 -375 -421 -528 -593 l-279 -313 28
-37 c39 -52 158 -206 385 -497 108 -137 368 -473 579 -745 211 -272 486 -626
612 -787 125 -160 228 -294 228 -297 0 -3 -233 -6 -518 -6 l-519 0 -65 83
c-69 87 -251 325 -813 1057 -421 550 -465 605 -479 605 -5 0 -101 -99 -213
-220 l-203 -220 0 -652 0 -653 -440 0 -440 0 0 2195 0 2195 440 0 440 0 2
-989z"/>
</g>
</svg>
