<?xml version="1.0" encoding="UTF-8" standalone="no"?>
<!-- Created with Inkscape (http://www.inkscape.org/) -->

<svg
   xmlns:dc="http://purl.org/dc/elements/1.1/"
   xmlns:cc="http://creativecommons.org/ns#"
   xmlns:rdf="http://www.w3.org/1999/02/22-rdf-syntax-ns#"
   xmlns:svg="http://www.w3.org/2000/svg"
   xmlns="http://www.w3.org/2000/svg"
   xmlns:sodipodi="http://sodipodi.sourceforge.net/DTD/sodipodi-0.dtd"
   xmlns:inkscape="http://www.inkscape.org/namespaces/inkscape"
   width="64.800087"
   height="26.21184"
   viewBox="0 0 17.145023 6.9352161"
   version="1.1"
   id="svg6307"
   inkscape:version="0.92.0 r15299"
   sodipodi:docname="lmi.svg">
  <defs
     id="defs6301" />
  <sodipodi:namedview
     id="base"
     pagecolor="#ffffff"
     bordercolor="#666666"
     borderopacity="1.0"
     inkscape:pageopacity="0.0"
     inkscape:pageshadow="2"
     inkscape:zoom="14.059542"
     inkscape:cx="31.900044"
     inkscape:cy="12.605923"
     inkscape:document-units="mm"
     inkscape:current-layer="layer1"
     showgrid="false"
     fit-margin-top="0"
     fit-margin-left="0"
     fit-margin-right="0"
     fit-margin-bottom="0"
     units="px"
     inkscape:window-width="1280"
     inkscape:window-height="744"
     inkscape:window-x="-4"
     inkscape:window-y="-4"
     inkscape:window-maximized="1" />
  <metadata
     id="metadata6304">
    <rdf:RDF>
      <cc:Work
         rdf:about="">
        <dc:format>image/svg+xml</dc:format>
        <dc:type
           rdf:resource="http://purl.org/dc/dcmitype/StillImage" />
        <dc:title></dc:title>
      </cc:Work>
    </rdf:RDF>
  </metadata>
  <g
     inkscape:label="Layer 1"
     inkscape:groupmode="layer"
     id="layer1"
     transform="translate(-119.31573,-157.32868)">
    <g
       transform="translate(-518.51359,-156.95259)"
       id="g6286">
      <path
         d="m 653.24212,314.41987 c 0.41037,0.0265 0.43365,0.28893 0.77761,0.3482 0.21378,0.0362 0.50879,-0.16193 0.69665,-0.32227 l 0.12567,0.21537 c -0.10848,0.14447 -0.51885,0.57812 -0.85857,0.58976 -0.36565,0.0175 -0.7067,-0.35851 -0.86704,-0.35851 a 1.3006917,1.3006917 0 0 0 -0.75882,0.28892 l -0.12568,-0.21351 c 0,0 0.66146,-0.57812 1.01176,-0.55351"
         class="cls-1"
         data-name="Path 2"
         id="Path_2"
         inkscape:connector-curvature="0"
         style="fill:#e65525;stroke-width:0.26458332" />
      <path
         style="fill:#232c68;stroke-width:0.26458332"
         inkscape:connector-curvature="0"
         id="Path_3"
         data-name="Path 3"
         class="cls-2"
         d="m 641.74095,320.58095 0.29765,-0.6895 h 0.16193 l -0.0585,1.10728 h -4.18042 v -0.16192 c 0,0 0.74851,-0.23813 0.74083,-0.23813 v -4.53681 l -0.71437,-0.22119 v -0.15319 h 2.35664 v 0.15319 l -0.68077,0.22119 v 4.52834 z" />
      <path
         style="fill:#232c68;stroke-width:0.26458332"
         inkscape:connector-curvature="0"
         id="Path_4"
         data-name="Path 4"
         class="cls-2"
         d="m 644.87255,315.68749 1.66688,4.03357 1.60099,-4.03357 h 1.78779 v 0.16192 l -0.69374,0.195 0.11986,4.5458 0.7747,0.24713 v 0.16192 h -2.31193 v -0.17092 l 0.5506,-0.20373 -0.0418,-4.25635 c 0,0.009 -1.91505,4.71593 -1.91505,4.71593 H 646.078 l -1.95394,-4.67439 -0.0175,4.21428 0.59532,0.21167 v 0.16192 h -1.78753 v -0.16192 l 0.69797,-0.23813 0.10372,-4.52702 -0.62151,-0.22992 v -0.15319 z" />
      <path
         style="fill:#232c68;stroke-width:0.26458332"
         inkscape:connector-curvature="0"
         id="Path_5"
         data-name="Path 5"
         class="cls-2"
         d="m 651.04396,320.99873 v -0.16192 l 0.73131,-0.24712 v -4.53655 l -0.68077,-0.21167 v -0.15398 h 2.35717 v 0.15319 l -0.68077,0.21167 v 4.53786 l 0.73263,0.24713 v 0.16192 z" />
    </g>
  </g>
</svg>
